<svg xmlns="http://www.w3.org/2000/svg" width="328.475" height="257.797" viewBox="0 0 328.475 257.797"><defs><style>.a{fill:#fff;}.b{fill:#211715;}.c{fill:#7a7473;}.d{fill:#f2635f;}.e{fill:#febe69;}.f{fill:#3d8dcc;}.g{fill:#ffda71;}.h{fill:#645d5c;}.i{fill:#f8b8b4;}.j{fill:none;}</style></defs><path class="a" d="M278.121,99.639c.36-.319.705-.63,1.027-.933,5.79-5.438,14.431-16.243,15.171-32.112a46.613,46.613,0,0,0-5.972-24.316c-9.567-16.611-21.487-20.24-28.89-21.726a46.991,46.991,0,0,0-21.421.969c-14.018,3.746-21.014,12.951-22.245,15.024A32.383,32.383,0,0,0,210.8,50.473a46.146,46.146,0,0,0-.877,7.907c-.626,5.986-1.472,14.291-7.181,16.854a5.607,5.607,0,0,0-2.738,2.369c-1.536,2.888.937,4.42,2.4,6.259a9.215,9.215,0,0,1,1.8,4.048,56.974,56.974,0,0,0,.574,8.735,24.241,24.241,0,0,0,1.522,5.941,11.487,11.487,0,0,0,5.872,6.287c4.418,2,10.589,3.056,14.694,2.268a2,2,0,0,1,2.268,1.351,53.03,53.03,0,0,1,2.767,6.682l2.742,6.837c5.113-.667,31.106-3.536,34.108-3.629-.377-2.23-.605-3.6-.605-3.6a31.766,31.766,0,0,1-.383-6.753C268.571,107.324,274.277,103.036,278.121,99.639Z"/><path class="a" d="M175.058,2.014C138.288,6.443,47.037,18.233,6.076,23.6a4.315,4.315,0,0,0-4.043,4.134c0,18.785,0,93.47,0,113.01a4.014,4.014,0,0,0,4.4,4.129c45.855-7.557,131.022-22.307,168.985-28.92a4.315,4.315,0,0,0,3.852-4.124c0-17.782.007-87.136.008-105.68A4,4,0,0,0,175.058,2.014Z"/><path class="b" d="M175.058.014c-18.783,2.263-37.55,4.653-56.317,7.042Q84.232,11.448,49.734,15.92q-15.159,1.962-30.318,3.937-6.222.812-12.443,1.626c-2.88.377-5.691,1.406-6.662,4.453a15.052,15.052,0,0,0-.278,4.475q0,25.909,0,51.821,0,26.856,0,53.712c0,3.751-.623,8.5,3.486,10.425,2.387,1.119,5.315.124,7.8-.287q3.6-.6,7.21-1.2,16.22-2.706,32.43-5.466Q87.174,133.266,123.373,127q15.989-2.761,31.973-5.535,6.781-1.177,13.563-2.357l5.929-1.032c2.794-.486,5.44-1.75,6.237-4.731a18.3,18.3,0,0,0,.194-4.581V92.6q0-14.538,0-29.077,0-27.013,0-54.027a36.381,36.381,0,0,0-.055-4.032A5.992,5.992,0,0,0,175.058.014c-2.553.179-2.573,4.181,0,4,2.235-.158,2.219,2.078,2.219,3.706V22.7q0,13.968,0,27.938,0,27.271,0,54.543V109.4c0,1.237.335,2.932-.648,3.86a5.231,5.231,0,0,1-2.846.954l-3.006.524-5.982,1.04q-14.448,2.513-28.9,5.013Q100.951,126.84,66,132.816,49.1,135.7,32.2,138.555q-7.664,1.291-15.328,2.57-3.447.575-6.894,1.146l-3.273.541a2,2,0,0,1-2.479-1.146c-.466-1.075-.187-2.7-.187-3.852q0-2.149,0-4.3V122.491q0-13.881,0-27.763,0-27.937,0-55.875V29.8c0-1.31-.3-2.861.923-3.716a5.919,5.919,0,0,1,2.7-.69l2.817-.369q13.68-1.789,27.364-3.563,33.21-4.31,66.429-8.56,30.144-3.853,60.3-7.608,5.245-.646,10.492-1.28a2.063,2.063,0,0,0,2-2A2.011,2.011,0,0,0,175.058.014Z"/><path class="c" d="M163.217,22.791q-18.123,2.5-36.243,5.015.025,39.786.053,79.572,18.12-3.051,36.243-6.079Q163.251,62.045,163.217,22.791Z"/><path class="c" d="M36.4,39.962c-5.316.754-12.453,1.8-16.869,2.433q.01,41.35.022,82.7c4.419-.764,11.554-2.01,16.862-2.913Q36.407,81.072,36.4,39.962Z"/><path class="b" d="M36.4,37.606c-5.7.806-11.324,1.634-16.869,2.428a2.679,2.679,0,0,0-2.071,2.645q.009,32.232.019,64.462,0,9.091,0,18.3a1.863,1.863,0,0,0,2.071,2.021c5.542-.96,11.167-1.947,16.862-2.918a2.81,2.81,0,0,0,2.135-2.708q0-32.929-.012-65.858,0-8.089,0-16.3c0-3.027-4.263-2.452-4.263.582q0,32.033.013,64.065,0,9.038,0,18.216,1.062-1.352,2.128-2.7c-5.695.967-11.321,1.95-16.863,2.907q1.036,1.007,2.078,2.014-.006-33.14-.017-66.28,0-8.133,0-16.364-1.041,1.322-2.078,2.641c5.545-.8,11.172-1.628,16.869-2.439C39.138,41.922,39.145,37.217,36.4,37.606Z"/><path class="d" d="M155.016,32.172c-6.138.847-14.518,2.011-19.775,2.737.008,5.265.025,13.494.031,19.465,5.262-.767,13.643-1.991,19.773-2.88C155.038,45.574,155.022,37.413,155.016,32.172Z"/><path class="e" d="M155,32.175c-8.657,3.41-17.655,13.11-19.744,22.2,5.263-.767,13.643-1.991,19.773-2.88C155.022,45.576,155.006,37.415,155,32.175Z"/><path class="b" d="M155.016,29.91q-9.865,1.356-19.775,2.724a2.734,2.734,0,0,0-2.269,2.585c.01,6.6.024,13.069.031,19.482a1.914,1.914,0,0,0,2.269,1.874q9.9-1.454,19.773-2.9a2.7,2.7,0,0,0,2.259-2.507c-.007-6.344-.021-12.746-.028-19.3,0-2.9-4.525-2.291-4.521.619.007,6.567.021,12.981.028,19.338l2.262-2.512q-9.864,1.422-19.773,2.861,1.134.942,2.269,1.878c-.007-6.4-.021-12.854-.031-19.449q-1.134,1.288-2.269,2.574,9.9-1.374,19.775-2.749C157.925,34.02,157.93,29.509,155.016,29.91Z"/><path class="b" d="M29.521,64.38l-3.22.467a2.664,2.664,0,0,0-2.115,2.647c0,1.129,0,2.358,0,3.536a1.88,1.88,0,0,0,2.121,2.022l3.219-.479a2.684,2.684,0,0,0,2.135-2.645c0-1.175,0-2.4,0-3.526A1.9,1.9,0,0,0,29.521,64.38Z"/><path class="b" d="M29.522,50.939l-3.22.453a2.663,2.663,0,0,0-2.115,2.657c0,1.138,0,2.375,0,3.562a1.9,1.9,0,0,0,2.122,2.046l3.219-.462a2.674,2.674,0,0,0,2.134-2.649c0-1.184,0-2.419-.005-3.555A1.914,1.914,0,0,0,29.522,50.939Z"/><path class="b" d="M29.52,77.731l-3.221.485a2.678,2.678,0,0,0-2.114,2.651c0,1.125,0,2.351.005,3.527A1.867,1.867,0,0,0,26.311,86.4l3.219-.5a2.7,2.7,0,0,0,2.134-2.654c0-1.173,0-2.394-.005-3.516A1.878,1.878,0,0,0,29.52,77.731Z"/><path class="b" d="M29.518,91.06l-3.22.5a2.7,2.7,0,0,0-2.114,2.666c0,1.127,0,2.355,0,3.535a1.858,1.858,0,0,0,2.121,2l3.219-.514a2.727,2.727,0,0,0,2.134-2.674c0-1.177,0-2.4,0-3.526A1.868,1.868,0,0,0,29.518,91.06Z"/><path class="b" d="M29.517,104.435l-3.22.52a2.725,2.725,0,0,0-2.114,2.691c0,1.134,0,2.371,0,3.56a1.858,1.858,0,0,0,2.121,2.01l3.219-.529a2.754,2.754,0,0,0,2.133-2.7c0-1.186,0-2.42,0-3.552A1.863,1.863,0,0,0,29.517,104.435Z"/><path class="b" d="M135.568,68.983l19.149-2.889c2.91-.438,2.914-4.776,0-4.343L135.568,64.6c-2.919.435-2.924,4.823,0,4.382Z"/><path class="b" d="M135.568,78.6l19.149-2.972c2.909-.451,2.914-4.808,0-4.361L135.568,74.2c-2.92.448-2.925,4.854,0,4.4Z"/><path class="b" d="M135.567,88.3q9.588-1.529,19.15-3.048c2.909-.463,2.914-4.871,0-4.413l-19.149,3.015c-2.92.46-2.925,4.912,0,4.446Z"/><path class="b" d="M135.567,98.147q9.588-1.558,19.15-3.109c2.909-.472,2.914-4.965,0-4.5q-9.555,1.538-19.15,3.084c-2.92.471-2.925,5,0,4.522Z"/><path class="b" d="M163.217,20.481q-18.117,2.491-36.243,5a2.757,2.757,0,0,0-2.269,2.629q.021,30.934.044,61.868c0,5.829.007,11.734.009,17.771a1.923,1.923,0,0,0,2.269,1.951q18.118-3.055,36.243-6.092a2.844,2.844,0,0,0,2.252-2.679q-.015-31.344-.042-62.689c0-5.156-.007-10.39-.01-15.755,0-2.962-4.509-2.36-4.508.609q.017,30.494.043,60.988c0,5.749.007,11.587.01,17.584q1.128-1.337,2.255-2.664-18.124,3.016-36.243,6.063,1.136.966,2.27,1.938-.016-31.8-.043-63.6c0-5.221-.008-10.507-.011-15.9q-1.136,1.31-2.269,2.616,18.122-2.513,36.243-5.03C166.116,24.686,166.122,20.081,163.217,20.481Z"/><path class="f" d="M98.422,55.127q-16.867,2.4-33.733,4.814a.88.88,0,0,0-.725.854l0,34.368a.615.615,0,0,0,.724.636L98.46,90.445a.9.9,0,0,0,.742-.857q-.021-16.915-.039-33.831A.625.625,0,0,0,98.422,55.127Z"/><path class="b" d="M98.422,52.878q-14.47,2.047-28.941,4.1c-1.528.217-3.067.373-4.588.652a3.686,3.686,0,0,0-3.128,3.478c-.018.3,0,.6,0,.9q0,7.581,0,15.115c0,5.487,0,10.974,0,16.491,0,2.2.049,4.739,2.924,4.468,1.069-.1,2.166-.345,3.24-.517l17.25-2.75c4.332-.69,8.717-1.222,13.077-2.083a3.8,3.8,0,0,0,3.206-3.546c.051-.922,0-1.844,0-2.756q-.006-4.86-.012-9.687c-.008-6.656-.016-13.29-.022-19.981,0-1.807-.2-3.762-2.4-3.89a2.713,2.713,0,0,0-2.771,1.966,1.954,1.954,0,0,0,1.572,2.539l-.014-.01L97,56.679c-.277-.369-.062-.671-.089-.178-.008.143,0,.287,0,.429,0,.39,0,.78,0,1.17q0,1.408,0,2.814,0,3.736.008,7.461c.006,5.327.012,10.646.019,15.993l0,3.361v1.24c0,.159-.005.32,0,.479a1.874,1.874,0,0,0,0,.212c.055.343-.267.245.091-.342l.808-.935c.423-.349.846-.19.383-.15-.231.019-.47.074-.7.11l-2.526.4-8.027,1.264L68.83,92.865l-3.022.477c-.276.044-.557.073-.832.131-.532.112-.083-.169.308.042l.791.693c.276.378.055.849.087.373.017-.235,0-.474,0-.707V91.321q0-4.065,0-8.112c0-6.155,0-12.293,0-18.46v-3.11c0-.285.015-.576,0-.858-.027-.545.176-.114-.089.33q-.4.464-.791.929c-.411.345-.828.177-.375.145.225-.015.459-.066.684-.1l2.473-.356,7.916-1.138L94.2,57.978l4.224-.606C101.321,56.956,101.327,52.466,98.422,52.878Z"/><path class="d" d="M64.187,47.063q7.437,12.5,15.187,24.813a2.056,2.056,0,0,1-1.546,2.934Q62.767,77.072,47.7,79.34c-1.333.2-2.163-1.2-1.5-2.517q7.441-14.682,14.933-29.338A1.747,1.747,0,0,1,64.187,47.063Z"/><path class="b" d="M62.287,48.49q4.919,8.256,9.881,16.294,2.439,3.959,4.888,7.883c.039.063.3.609.376.6-.221.017.225-.833.339-.7-.179-.206-2.182.325-2.464.367q-12.093,1.8-23.93,3.574c-1.085.162-2.168.332-3.249.486a2.713,2.713,0,0,1-.387.051c.021-.269.845.669.335.641a1.919,1.919,0,0,0,.1-.208,19.849,19.849,0,0,0,1.464-2.887q1.344-2.646,2.69-5.289,3.26-6.4,6.543-12.8,1.334-2.6,2.67-5.212l.877-1.713a4.831,4.831,0,0,0,.52-1.016c.087-.489-.265.474-.658-.073,1.589,2.213,5.413-.617,3.8-2.855-1.81-2.518-5.327-1.9-6.968,1.186-.572,1.075-1.1,2.171-1.656,3.254q-3.314,6.513-6.605,12.986-2.893,5.7-5.769,11.4a8.264,8.264,0,0,0-1.272,3.663c.007,2.652,2.159,3.761,4.433,3.416l24.1-3.65c2.759-.417,7.258-.283,8.943-3.366,1.665-3.048-1.35-6.223-2.7-8.39C74.505,59.552,70.427,52.9,66.37,46.1c-.093-.156-.186-.313-.28-.469C64.672,43.257,60.869,46.11,62.287,48.49Z"/><path class="g" d="M116.689,82.614a18.686,18.686,0,0,1-.924,3.57,14.082,14.082,0,0,1-3.525,5.175,18.449,18.449,0,0,1-2.634,1.934,19.527,19.527,0,0,1-3.37,1.434,19.966,19.966,0,0,1-4.279.692,15.035,15.035,0,0,1-3.316-.357,12.234,12.234,0,0,1-2.712-1.146,11.4,11.4,0,0,1-2.007-1.7,12.265,12.265,0,0,1-1.579-2.49,15.02,15.02,0,0,1-.9-3.267,17.727,17.727,0,0,1-.03-3.786,17.728,17.728,0,0,1,.9-3.484,18.591,18.591,0,0,1,1.606-2.987,18.831,18.831,0,0,1,2.182-2.5,14.951,14.951,0,0,1,6.14-3.391,16.493,16.493,0,0,1,3.623-.54,14.008,14.008,0,0,1,3.423.389,13.007,13.007,0,0,1,2.736,1.153,12.118,12.118,0,0,1,2.162,1.788,12.357,12.357,0,0,1,1.618,2.453,13.682,13.682,0,0,1,.922,3.2A17.746,17.746,0,0,1,116.689,82.614Z"/><path class="b" d="M114.505,82.363a12.834,12.834,0,0,1-2.43,6.092,12.408,12.408,0,0,1-5.58,3.9c-4.254,1.548-9.111.856-11.391-2.616-2.233-3.4-2.108-8.665.655-12.526a12.466,12.466,0,0,1,12.091-4.983,7.92,7.92,0,0,1,5.157,3.318c1.454,2.141,1.7,4.67,1.417,7.422a1.885,1.885,0,0,0,2.265,1.873,2.8,2.8,0,0,0,2.267-2.58c.644-6.278-2.048-11.893-7.811-13.948-5.539-1.975-12.8-.1-17.362,4.8C89.161,78.061,87.908,85.2,90.178,90.67c2.363,5.692,8.429,7.954,14.775,6.629a18.049,18.049,0,0,0,9.486-5.216,17.644,17.644,0,0,0,4.436-9.22,1.935,1.935,0,0,0-1.583-2.485A2.727,2.727,0,0,0,114.505,82.363Z"/><path class="h" d="M161.307,145.609c-22.774,4.6-59.764,12.1-68.561,13.943a.951.951,0,0,0-.393,1.669c4.282,3.5,16.957,13.883,27.994,22.875l21.964,18.467c21.44-5.687,54.223-14.841,81.313-22.047l-29.008-25.473C191.3,152,183.083,144.969,180.4,142.677a2.3,2.3,0,0,0-1.946-.516C175.96,142.655,169.569,143.941,161.307,145.609Z"/><path class="a" d="M119.87,193.716a9.788,9.788,0,0,0-1.591.972q-1.837,1.411-3.615,2.9a2.8,2.8,0,0,0-1.064,2.791l.267.787a10.878,10.878,0,0,0-2.608,2.321,4.76,4.76,0,0,0-1.173,2.658,2.4,2.4,0,0,0,1.394,2.382l1.906.7a12.765,12.765,0,0,0-.691,1.187c-.865,1.677-.747,3.265-.045,4a3.127,3.127,0,0,0,2.641.764c.873-.16,4.757-2.246,6.207-2.8a23.8,23.8,0,0,0,19.552,4.512l6.773,1.445a149.052,149.052,0,0,1,6.453-17.473,32.462,32.462,0,0,0-7.385-11.12,3.653,3.653,0,0,0-2.073-1.113,4.031,4.031,0,0,0-2.725.478,3.793,3.793,0,0,0-2.049,2.869,8.526,8.526,0,0,0-6.957-3.613,22.623,22.623,0,0,0-7.159,1.107c-2.1.587-4.27,2.243-4.5,3.629A10.156,10.156,0,0,0,119.87,193.716Z"/><path class="h" d="M115.743,217.124c.012-.4.035-.779.07-1.141,0,0,.035-.375.09-1,1.419-.573,4.373-2.13,5.6-2.606a23.8,23.8,0,0,0,17.96,4.805c-.057.57-.092.935-.092.935-.029.289-.074.612-.13.96a2.941,2.941,0,0,1-2.948,2.18c-4.577.18-12.7.5-17.275.645-1.72.054-3.177-1.018-3.245-2.4C115.734,218.708,115.719,217.893,115.743,217.124Z"/><path class="b" d="M154.986,197.5a42.856,42.856,0,0,0-6.146-8.615,6.238,6.238,0,0,0-5.069-2.295,6.384,6.384,0,0,0-5.03,3.063,2,2,0,0,0,3.454,2.019c.007-.012.3-.4.151-.244-.163.18.179-.158.211-.191.356-.374-.255.154.2-.164.115-.081.229-.164.348-.239.054-.034.523-.232.208-.128a3.5,3.5,0,0,1,.484-.122c.317-.057-.406-.014.185,0,.176,0,.35,0,.525.015.212.019-.155-.052.176.043s-.009-.038.165.054a3.434,3.434,0,0,1,.424.256c-.233-.169.095.1.135.137.5.48.964,1.008,1.415,1.534a40.837,40.837,0,0,1,4.714,6.9,2,2,0,1,0,3.453-2.019Z"/><path class="b" d="M140.946,189.85c-2.4-2.786-6.289-3.754-9.836-3.442-3.62.318-8.192,1.19-10.585,4.2a2.063,2.063,0,0,0,0,2.829,2.014,2.014,0,0,0,2.828,0,6.147,6.147,0,0,1,3.107-2.039,23.293,23.293,0,0,1,4.65-.992c2.59-.22,5.237.21,7.008,2.27a2.016,2.016,0,0,0,2.828,0,2.04,2.04,0,0,0,0-2.828Z"/><path class="b" d="M128.426,190.658c-3.41-.317-6.987-.125-10.043,1.581a30.415,30.415,0,0,0-4.241,3.195c-1.689,1.384-3.091,3.151-2.471,5.476a2,2,0,1,0,3.857-1.063c.057.214,0-.242-.019-.107-.03.166.124-.267.062-.152a1.38,1.38,0,0,1,.357-.451c.613-.569,1.29-1.081,1.943-1.6a16.523,16.523,0,0,1,3.075-2.123,12.36,12.36,0,0,1,3.55-.848,20.735,20.735,0,0,1,3.93.1,2.014,2.014,0,0,0,2-2,2.043,2.043,0,0,0-2-2Z"/><path class="b" d="M122.644,196.193c-3.866.541-7.875,1.672-10.986,4.117a9.1,9.1,0,0,0-3.41,4.682c-.468,1.954.232,4.418,2.223,5.262a2.068,2.068,0,0,0,2.736-.717,2.015,2.015,0,0,0-.717-2.737c-.029-.012-.456-.15-.244-.092.165.045-.156-.172.037.08-.06-.079-.24-.512-.115-.14-.037-.111-.058-.228-.1-.338.116.341.007,0,.014-.165-.011.27.018-.083.047-.19.013-.047.157-.451.054-.21a3.957,3.957,0,0,1,.251-.467,8.339,8.339,0,0,1,2.689-2.548A14.318,14.318,0,0,1,118.9,201.1a30.475,30.475,0,0,1,4.808-1.053,2.012,2.012,0,0,0,1.4-2.46,2.054,2.054,0,0,0-2.461-1.4Z"/><path class="b" d="M114.2,205.257a14.579,14.579,0,0,0-3.228,4.151c-.88,1.737-1.389,4.151-.169,5.872a4.912,4.912,0,0,0,5.187,1.791,19.575,19.575,0,0,0,3.074-1.353c.627-.3,1.253-.611,1.882-.912.277-.132.554-.263.833-.39l.379-.169c.255-.114-.564.227-.094.044a2.048,2.048,0,0,0,1.4-2.46,2.023,2.023,0,0,0-2.46-1.4c-1.964.763-3.808,1.806-5.731,2.661-.36.16.2-.079.149-.063-.076.027-.149.061-.225.089-.128.048-.269.075-.394.127-.042.017.462-.034.078-.022-.142,0-.3-.027-.437-.016.409-.034.324.063.154.011-.082-.024-.167-.039-.249-.063-.061-.018-.12-.043-.181-.06-.223-.063.365.216.075.023a1.408,1.408,0,0,0-.211-.126c.024,0,.286.278.167.131a.793.793,0,0,0-.16-.157c-.131-.085.161.181.163.211a1.114,1.114,0,0,0-.1-.175c-.125-.2.119-.042.076.182a1.46,1.46,0,0,0-.112-.448c.032.045.031.506.033.161,0-.065,0-.13,0-.2,0-.089.014-.18.011-.269-.007-.212-.021.161-.032.181a3.236,3.236,0,0,0,.129-.587c.021-.077.045-.152.07-.227.059-.178.095-.321.008-.062a6.1,6.1,0,0,1,.605-1.128q.145-.24.3-.474c.077-.116.338-.377.363-.514,0,.007-.24.3-.1.127.075-.091.148-.184.224-.274q.186-.22.382-.432c.31-.336.638-.652.976-.959a2.015,2.015,0,0,0,0-2.829,2.045,2.045,0,0,0-2.828,0Z"/><path class="b" d="M120.127,213.828a26.123,26.123,0,0,0,21.455,4.991,2,2,0,0,0-1.063-3.857A21.8,21.8,0,0,1,122.955,211a2.066,2.066,0,0,0-2.828,0,2.013,2.013,0,0,0,0,2.829Z"/><path class="b" d="M113.813,215.983c-.137,1.669-.365,3.77.432,5.31a5.015,5.015,0,0,0,3.57,2.5A20.323,20.323,0,0,0,122,223.8q2.187-.078,4.374-.16,4.4-.167,8.8-.341a7.24,7.24,0,0,0,4.21-1.07c1.44-1.041,1.795-2.436,1.984-4.114a2.013,2.013,0,0,0-2-2,2.047,2.047,0,0,0-2,2c-.085.751-.282,1.035-1.078,1.14-.971.129-2,.079-2.984.118q-3.467.135-6.935.267-3.265.123-6.53.233c-.551.018-1.633.207-2.014-.359a2.936,2.936,0,0,1-.094-1.145c-.012-.8.011-1.589.077-2.384.21-2.566-3.792-2.552-4,0Z"/><path class="b" d="M196.03,153.629c-4.233-3.88-8.63-7.588-12.992-11.321-1.095-.937-2.122-1.96-3.623-2.141a7.442,7.442,0,0,0-2.356.237q-1.716.342-3.43.687-12.607,2.53-25.209,5.086-15.945,3.225-31.887,6.466-11.484,2.335-22.964,4.7a12.043,12.043,0,0,0-1.621.381,2.962,2.962,0,0,0-1.1,4.809,60.688,60.688,0,0,0,5.516,4.54q8.907,7.287,17.821,14.564l4.752,3.875a2.06,2.06,0,0,0,2.829,0,2.015,2.015,0,0,0,0-2.828q-8.349-6.8-16.684-13.622l-6.859-5.611-2.541-2.08-1.041-.851a4.1,4.1,0,0,0-.528-.432c-.868-.486.6-.242-.112.734l-.718.718a7.807,7.807,0,0,1,2.479-.573q1.674-.346,3.347-.69,4.594-.944,9.191-1.881,11.91-2.43,23.822-4.843,21.639-4.387,43.284-8.745l2.858-.572a4.159,4.159,0,0,1,.5-.1c.146-.01.145-.078.419.124.772.566,1.477,1.263,2.2,1.886,3.968,3.4,7.963,6.782,11.816,10.314,1.894,1.737,4.731-1.085,2.828-2.829Z"/><path class="a" d="M193.269,162.086a4.669,4.669,0,0,1-4.568-2.394c-.907-1.949.458-10.566,2.657-13.682.815-1.153,3.847-1.738,5.166-1.657l.891-.009a2.988,2.988,0,0,1,.129-.743,2.835,2.835,0,0,1,1.862-1.851,4.111,4.111,0,0,1,2.987.535,19.983,19.983,0,0,1,4.559,3.516s6.146,1.588,2,8.8c-1.926,3.351-4.187,11.736-6.522,12.589C199.746,168.166,193.269,162.086,193.269,162.086Z"/><path class="b" d="M196.524,142.353a10.146,10.146,0,0,0-6.58,2.243,10.756,10.756,0,0,0-2.8,5.063,24.222,24.222,0,0,0-.884,6.11,11.392,11.392,0,0,0,.582,4.617,6.528,6.528,0,0,0,6.429,3.7,2.052,2.052,0,0,0,2-2,2.015,2.015,0,0,0-2-2,5.052,5.052,0,0,1-.7.012q-.354-.032-.044,0c-.134-.024-.267-.053-.4-.087a2.307,2.307,0,0,1-1.088-.5c.088.064-.353-.341-.426-.441.019.026-.3-.908-.053-.071-.072-.247-.138-.489-.193-.741-.124-.56,0,.234-.028-.153-.011-.155-.031-.309-.043-.464-.036-.465-.049-.932-.048-1.4a25.281,25.281,0,0,1,.168-2.76,13.328,13.328,0,0,1,1.666-5.271c.065-.1.133-.2.2-.3q-.2.254.012-.008c.113-.128.227-.251.349-.37.163-.142.164-.15,0-.022.11-.076.224-.148.341-.215.133-.076.55-.282.561-.286a10.166,10.166,0,0,1,1.653-.512,3.485,3.485,0,0,1,1.316-.149c2.575.085,2.572-3.916,0-4Z"/><path class="b" d="M211.589,131.617c-7.3,10.4-13.992,21.216-21.337,31.589-1.49,2.105,1.977,4.105,3.454,2.019,7.345-10.373,14.036-21.187,21.337-31.589,1.482-2.111-1.984-4.112-3.454-2.019Z"/><path class="a" d="M206.952,145.8a19.983,19.983,0,0,0-4.559-3.516,4.111,4.111,0,0,0-2.987-.535,2.835,2.835,0,0,0-1.862,1.851c-.8,2.414,2.058,10.556,2.321,11.429,0,0,2.717.125,4.908-3.23A12,12,0,0,0,206.952,145.8Z"/><path class="b" d="M208.366,144.387a18.548,18.548,0,0,0-4.877-3.785,6.49,6.49,0,0,0-4.375-.837,4.722,4.722,0,0,0-3.189,2.553,8.2,8.2,0,0,0-.246,4.983,41.675,41.675,0,0,0,1.186,4.863c.336,1.14.724,2.262,1.071,3.4a2,2,0,0,0,3.858-1.063c-.653-2.135-1.371-4.242-1.881-6.419-.165-.7-.312-1.409-.422-2.123a1.234,1.234,0,0,1-.04-.274c0-.014.039.428.028.2-.007-.15-.033-.3-.045-.45a8.187,8.187,0,0,1-.029-.872c0-.074.058-.306.021-.357.034.046-.05.581-.007.128.006-.07.116-.344,0-.082a2.793,2.793,0,0,1,.142-.257c.163-.275-.279.283.106-.134,0,0,.231-.231.093-.095-.165.161.276-.131.055-.043-.162.065.471-.089.3-.074.265-.023.135-.028.391.039.183.048.561.18.65.22a12.607,12.607,0,0,1,2.2,1.38l.234.174c.263.194,0-.009.149.115.21.169.419.34.623.516a14,14,0,0,1,1.171,1.127,2,2,0,0,0,2.828-2.828Z"/><path class="b" d="M55.183,249.956c10.336-2.454,20.637-5.06,30.945-7.629q20.11-5.01,40.211-10.061,7.5-1.882,15-3.771c2.494-.63,1.437-4.488-1.064-3.858q-15.9,4.011-31.813,7.988-19.98,5-39.969,9.962C63.7,243.77,58.917,244.96,54.12,246.1c-2.5.595-1.444,4.453,1.063,3.858Z"/><path class="b" d="M171.863,196.613c9.291-2.4,18.507-5.075,27.794-7.487,2.49-.647,1.434-4.506-1.063-3.857-9.287,2.412-18.5,5.091-27.794,7.487-2.491.642-1.435,4.5,1.063,3.857Z"/><path class="i" d="M281.148,123.32c9.25,4.413,16.856,13.2,20.593,23.787a83.639,83.639,0,0,1,3.589,16.907c1.238,9.336,1.834,53.2-.187,68.338,0,0-27.662,6.381-65.328,5.048a105.714,105.714,0,0,1-20.9-2.7,22.122,22.122,0,0,1-10.821,7.491c-5.374,1.713-13.983,2.022-29.449-4.714-11.741-5.115-27.376-12.82-31.858-17.106,1.889-6.582,5.5-15.889,9.738-21.448,3.967.687,25.834,6.068,27.561,6.59l9.1,2.175a68.623,68.623,0,0,0,3.046-9.7c3.685-14.5,7.4-33.1,12.084-43.417,4.013-8.837,13.136-16.448,20.863-21.166,1.337-.816,3.481-1.949,4.939-2.949,0,0,8.42-4.969,23.17-6.219C269.191,123.224,281.148,123.32,281.148,123.32Z"/><path class="b" d="M233.108,128.725c-2.6,1.748-5.411,3.16-8.006,4.93a73.2,73.2,0,0,0-7.831,6.13A43.812,43.812,0,0,0,205.9,155.132a127.5,127.5,0,0,0-5.525,17.449c-1.713,6.595-3.229,13.238-4.835,19.859-.789,3.251-1.552,6.519-2.524,9.722a85.787,85.787,0,0,1-3.488,9.117,2.066,2.066,0,0,0,.718,2.736,2.014,2.014,0,0,0,2.736-.717,104.307,104.307,0,0,0,5.555-16.3c1.641-6.57,3.137-13.175,4.777-19.746a178.194,178.194,0,0,1,5.153-17.764,39.789,39.789,0,0,1,9.573-14.93,62.9,62.9,0,0,1,8.142-6.8c2.882-2.032,6.02-3.617,8.941-5.578,2.126-1.427.126-4.894-2.019-3.454Z"/><path class="b" d="M277.452,123.839c-2.657-2.188-5.351-3.549-8.85-3.452q-3.8.1-7.591.331c-3.452.2-6.9.49-10.326.959a39.2,39.2,0,0,0-9.879,2.841,82.757,82.757,0,0,0-10.168,5.156c-2.212,1.312-.2,4.771,2.019,3.454a73.7,73.7,0,0,1,10.736-5.373,42.116,42.116,0,0,1,11.446-2.565c3.7-.361,7.416-.569,11.131-.712a35.613,35.613,0,0,1,3.878-.088,8.59,8.59,0,0,1,4.775,2.277c1.973,1.625,4.818-1.19,2.829-2.828Z"/><path class="b" d="M279.7,124.842a39.451,39.451,0,0,1,19,19.961c3.272,7.347,4.521,15.743,5.037,23.732.917,14.181.9,28.479.611,42.68a192.036,192.036,0,0,1-1.2,21.137,2.01,2.01,0,0,0,2,2,2.052,2.052,0,0,0,2-2,178.886,178.886,0,0,0,1.146-18.857c.2-8.029.219-16.064.115-24.095-.085-6.667-.224-13.342-.62-20-.48-8.06-1.633-16.382-4.527-23.944-3.929-10.267-11.471-19.377-21.54-24.068a2.059,2.059,0,0,0-2.737.718,2.016,2.016,0,0,0,.718,2.736Z"/><path class="b" d="M228.831,197.812c-1.825,8.97-3.514,17.858-6.931,26.4-1.44,3.6-2.952,7.644-5.6,10.543a20.245,20.245,0,0,1-8.609,5.471c-4.664,1.519-9.7,1.166-14.7.037-8.459-1.909-16.4-5.741-24.18-9.475-4.216-2.024-8.4-4.128-12.475-6.428a42.175,42.175,0,0,1-8.13-5.4l.514,1.946c2.11-7.292,4.937-14.857,9.537-20.97a2.013,2.013,0,0,0-.717-2.737,2.049,2.049,0,0,0-2.737.718c-4.784,6.358-7.745,14.341-9.94,21.925a2,2,0,0,0,.514,1.946,40.509,40.509,0,0,0,7.469,5.18c3.717,2.171,7.549,4.142,11.41,6.041,8.251,4.058,16.732,8.246,25.648,10.612,5.724,1.519,11.932,2.328,17.744.788a25.22,25.22,0,0,0,9.082-4.615c3.345-2.637,5.364-6.134,7.093-9.954a100.5,100.5,0,0,0,5.455-15.112c1.417-5.221,2.337-10.554,3.415-15.85.511-2.513-3.343-3.588-3.857-1.064Z"/><path class="a" d="M255.62,255.689c.681-12.265,2-24.447,2.782-35.972a11.11,11.11,0,0,1,8.018-9.907c14.166-4.086,34.8-10.109,49.05-14.251a8.632,8.632,0,0,1,11.012,8.953c-1.287,16.776-1.512,23.774-2.319,35.813a2,2,0,0,1-1.525,1.812l-64.546,15.6A2,2,0,0,1,255.62,255.689Z"/><path class="b" d="M257.832,252.186c.5-10.433,1.71-20.805,2.483-31.218.323-4.357,2.656-8.061,6.97-9.325,4.64-1.36,9.289-2.687,13.932-4.035q15.144-4.4,30.284-8.811c2.052-.6,4.3-1.594,6.461-1.58a6.961,6.961,0,0,1,5.047,2.226c1.467,1.6,1.6,3.408,1.442,5.472q-.317,4.161-.607,8.324c-.659,9.514-1.129,19.039-1.78,28.553-.176,2.569,3.825,2.559,4,0,.607-8.87,1.051-17.75,1.648-26.621q.289-4.3.613-8.591c.206-2.743.405-5.244-.9-7.767a10.945,10.945,0,0,0-12.162-5.268c-4.991,1.213-9.915,2.877-14.847,4.313q-8.145,2.37-16.29,4.739-7.761,2.256-15.525,4.5c-2.405.7-4.781,1.3-6.81,2.839a13.528,13.528,0,0,0-4.32,5.676c-1.171,2.83-1.179,5.88-1.422,8.89s-.52,5.987-.8,8.978c-.588,6.227-1.111,12.455-1.411,18.7-.124,2.573,3.876,2.566,4,0Z"/><path class="b" d="M184.618,203.585c-2.942-.874-5.965-1.527-8.944-2.258-4.589-1.127-9.181-2.24-13.787-3.294-1.6-.367-3.209-.752-4.83-1.037a2.057,2.057,0,0,0-2.46,1.4,2.017,2.017,0,0,0,1.4,2.461c3.541.623,7.046,1.542,10.542,2.376q6.681,1.593,13.344,3.261c1.225.308,2.463.592,3.675.952,2.472.735,3.529-3.124,1.063-3.857Z"/><path class="h" d="M263.044,20.183c-1.226-.331-2.379-.587-3.442-.8a48.008,48.008,0,0,0-21.872.99C223.417,24.2,216.275,33.6,215.017,35.712a36.7,36.7,0,0,0-3.753,7.947,36.233,36.233,0,0,0,14.7,21.128l7.929,0a35.459,35.459,0,0,0,10.26,8.825,6.464,6.464,0,0,1,2.673-.951,5.73,5.73,0,0,1,4.723,1.328c1.789,1.669,2.327,4.772,1.906,7.22a14.431,14.431,0,0,1-8.094,11.112c1.769,7.542,2.681,10.751,2.179,17.1-.305,3.857-5.616,14.648-12.088,16.593,5.186,3.975,13.167,6.347,20.76,7.025,11.893,1.062,23.167-.8,28.6-4.3,4.424-2.85,7.487-5.063,9.416-10.035,1.022-2.635.469-6.9.086-9.365-1.4-8.994-3.916-13.824-.9-28.73a136.416,136.416,0,0,0,1.779-14.21,47.6,47.6,0,0,0-6.1-24.828C280.705,26.989,270.536,22.2,263.044,20.183Z"/><path class="b" d="M244.29,75.982c1.8-1.525,4.94-2.179,6.43.126,1.363,2.11.916,4.87.188,7.113-1.527,4.706-5.513,7.4-10.109,8.688-2.475.691-1.424,4.552,1.064,3.857,4.957-1.386,9.56-4.23,11.886-8.98a16.154,16.154,0,0,0,1.825-7.807c-.173-2.929-1.376-6.091-4.138-7.5-3.422-1.741-7.181-.7-9.975,1.672a2.017,2.017,0,0,0,0,2.828,2.042,2.042,0,0,0,2.829,0Z"/><path class="b" d="M212.641,66.569c-.809,1.678-1.152,5.785,1.96,6.65,4.194.66,5.237-4.2,4.212-6.738C217.974,64.406,214.71,63.065,212.641,66.569Z"/><path class="b" d="M233.832,118.643c-.557-1.684-1.211-3.331-1.933-4.951q-.339-.76-.7-1.51c-.073-.152-.14-.31-.222-.457-.215-.389.268.657-.038-.069a4.025,4.025,0,0,0-3.907-2.533c-1.493.064-2.913.326-4.428.248a26.456,26.456,0,0,1-9.419-2.225,10.234,10.234,0,0,1-5.38-6.2,37.291,37.291,0,0,1-1.588-11.032,12.391,12.391,0,0,0-.85-4.95,13.746,13.746,0,0,0-2.7-3.811c-.692-.754-1.458-1.493-.934-2.545.627-1.261,2.118-1.584,3.206-2.311a13.277,13.277,0,0,0,4.8-6.467c2.566-6.581,1.724-13.833,3.392-20.6.616-2.5-3.24-3.565-3.857-1.063-1.535,6.228-.991,12.755-2.819,18.922-.66,2.227-1.722,4.656-3.787,5.918-1.315.8-2.664,1.331-3.677,2.562a5.763,5.763,0,0,0-1.344,4.87c.663,2.9,3.722,4.31,4.443,7.212a28.584,28.584,0,0,1,.243,4.776,54.84,54.84,0,0,0,.707,5.911,18.233,18.233,0,0,0,4.382,9.59c2.159,2.261,5.139,3.434,8.094,4.263a28.97,28.97,0,0,0,11.234.982c.673-.079.375-.3.671.359.165.366.35.724.522,1.087a45.089,45.089,0,0,1,2.029,5.084c.805,2.433,4.669,1.391,3.857-1.063Z"/><path class="j" d="M210.768,50.75a32.465,32.465,0,0,1,5.023-14.2c1.231-2.073,8.227-11.278,22.245-15.024a46.991,46.991,0,0,1,21.421-.969c7.4,1.486,19.323,5.115,28.89,21.726a46.613,46.613,0,0,1,5.972,24.316c-.74,15.869-9.381,26.674-15.171,32.112-3.757,3.529-10.5,8.176-11.382,13.326a31.766,31.766,0,0,0,.383,6.753"/><path class="b" d="M210.95,88.661a19.953,19.953,0,0,1-3.253.761l.532-.072a12.124,12.124,0,0,1-3.057.041l.532.072c-.248-.034-.494-.075-.74-.125A2,2,0,1,0,203.9,93.2a16.147,16.147,0,0,0,8.112-.677,2,2,0,1,0-1.063-3.857Z"/><path class="b" d="M209.8,45.915a38.759,38.759,0,0,0,15.153,20.6,2,2,0,1,0,2.019-3.454A34.373,34.373,0,0,1,213.66,44.852c-.749-2.455-4.611-1.408-3.857,1.063Z"/><path class="b" d="M224.669,55.133c4.619,7.173,9.471,14.481,16.767,19.2,2.168,1.4,4.176-2.06,2.019-3.454-6.689-4.325-11.1-11.195-15.332-17.763-1.389-2.157-4.853-.154-3.454,2.019Z"/><path class="b" d="M211.889,50.216a32.486,32.486,0,0,1,3.74-11.554,28.487,28.487,0,0,1,1.685-2.8c.1-.145.209-.287.315-.43.281-.379-.165.2.159-.2s.656-.8,1-1.184a39.269,39.269,0,0,1,17.243-11.085c14.1-4.56,30.508-2.743,41.724,7.407A47.819,47.819,0,0,1,291.634,53c2.346,8.6,1.666,17.571.021,26.252a77.651,77.651,0,0,0-1.643,12.728,48.7,48.7,0,0,0,.838,9.668c.534,2.986,1.227,5.943,1.65,8.948a22.2,22.2,0,0,1,.231,5.874,11.261,11.261,0,0,1-2.273,5.042,23.523,23.523,0,0,1-8.583,6.559,35.874,35.874,0,0,1-11.181,2.828c-9.493,1.092-19.966.572-28.784-3.421a28.7,28.7,0,0,1-5.447-3.192,2.012,2.012,0,0,0-2.736.717,2.05,2.05,0,0,0,.717,2.737c8.029,6.047,19,7.643,28.79,7.594a60.9,60.9,0,0,0,14.926-1.763,30.946,30.946,0,0,0,10.449-4.975c3.477-2.491,6.558-5.752,7.754-9.975,1.092-3.853.207-8.229-.5-12.079-.556-3.021-1.29-6.033-1.62-9.083a46.84,46.84,0,0,1,.249-11.384c.566-4.126,1.473-8.176,1.961-12.318a60.185,60.185,0,0,0,.337-15.391,51.992,51.992,0,0,0-12.443-26.973,41.986,41.986,0,0,0-17.788-12.216,48.941,48.941,0,0,0-25.142-1.689c-14.23,2.656-27.7,11.5-32.128,25.8a41.981,41.981,0,0,0-1.4,6.935,2.009,2.009,0,0,0,2,2,2.052,2.052,0,0,0,2-2Z"/><path class="b" d="M243.784,94.337a56.682,56.682,0,0,1,1.865,10.438c.038.863.039,1.727.01,2.591q-.019.6-.057,1.206c-.007.116-.133,1.353-.048.8a14.567,14.567,0,0,1-.808,2.843,28.209,28.209,0,0,1-3.94,7.059c-1.506,1.982-3.45,4.029-5.884,4.8s-1.4,4.643,1.064,3.857c6.125-1.954,10.178-8.509,12.427-14.167,2.609-6.563.784-13.907-.772-20.5-.591-2.5-4.449-1.444-3.857,1.064Z"/></svg>